<svg width="357" height="102" viewBox="0 0 357 102" fill="none" xmlns="http://www.w3.org/2000/svg">
<g clip-path="url(#clip0_525_11074)">
<path d="M119.879 88.5205H113.109V58.9805H122.339L126.159 78.0105L130.119 58.9805H139.049V88.5205H132.289V72.4205L128.809 88.5205H123.569L119.879 72.4205V88.5205Z" fill="#F97316"/>
<path d="M153.442 58.9805H160.582V82.3505C160.582 84.7205 159.722 86.4505 157.992 87.5405C156.272 88.6305 153.992 89.1805 151.172 89.1805C148.352 89.1805 146.082 88.6305 144.352 87.5405C142.632 86.4405 141.762 84.7105 141.762 82.3505V58.9805H148.902V81.2605C148.902 81.9005 149.112 82.3805 149.532 82.7205C149.952 83.0605 150.492 83.2305 151.172 83.2305C151.852 83.2305 152.392 83.0605 152.812 82.7205C153.232 82.3805 153.432 81.8905 153.432 81.2605V58.9805H153.442Z" fill="#F97316"/>
<path d="M169.938 67.1301C169.938 67.5501 170.058 67.8901 170.298 68.1701C170.538 68.4401 170.948 68.7201 171.548 69.0101C172.148 69.3001 173.088 69.6801 174.378 70.1601C176.698 71.0401 178.378 71.8601 179.398 72.6201C180.428 73.3901 181.088 74.2401 181.378 75.1701C181.668 76.1001 181.818 77.4601 181.818 79.2601V82.3501C181.818 84.7201 180.928 86.4501 179.158 87.5401C177.388 88.6301 175.078 89.1801 172.238 89.1801C169.398 89.1801 167.148 88.6301 165.418 87.5401C163.688 86.4401 162.828 84.7101 162.828 82.3501V78.0501H169.828V81.4001C169.828 82.0101 170.068 82.5001 170.538 82.8501C171.008 83.2001 171.598 83.3801 172.298 83.3801C172.998 83.3801 173.588 83.2101 174.078 82.8501C174.558 82.5001 174.808 82.0201 174.808 81.4001V80.5801C174.808 79.5101 174.698 78.7001 174.488 78.1601C174.278 77.6201 173.858 77.1701 173.248 76.8101C172.638 76.4501 171.628 76.0201 170.208 75.5101C168.228 74.8301 166.708 74.1401 165.678 73.4201C164.638 72.7101 163.928 71.9001 163.528 71.0001C163.138 70.1001 162.938 68.9701 162.938 67.6201V65.1601C162.938 62.7901 163.798 61.0601 165.528 59.9701C167.248 58.8801 169.528 58.3301 172.348 58.3301C175.168 58.3301 177.438 58.8801 179.168 59.9701C180.888 61.0701 181.758 62.8001 181.758 65.1601V68.1501H174.758V66.0801C174.758 65.4701 174.528 64.9801 174.078 64.6301C173.628 64.2801 173.048 64.1001 172.348 64.1001C171.608 64.1001 171.018 64.2501 170.588 64.5401C170.158 64.8301 169.948 65.2901 169.948 65.9001V67.1201L169.938 67.1301Z" fill="#F97316"/>
<path d="M195.751 77.9101H203.021V82.3501C203.021 84.7201 202.171 86.4501 200.471 87.5401C198.771 88.6301 196.521 89.1801 193.721 89.1801C190.921 89.1801 188.571 88.6301 186.801 87.5401C185.031 86.4401 184.141 84.7101 184.141 82.3501V65.1601C184.141 62.7901 185.001 61.0601 186.731 59.9701C188.461 58.8801 190.731 58.3301 193.551 58.3301C196.371 58.3301 198.651 58.8801 200.401 59.9701C202.151 61.0701 203.021 62.8001 203.021 65.1601V68.5401H195.921V66.2401C195.921 65.6301 195.691 65.1401 195.241 64.7901C194.791 64.4401 194.221 64.2601 193.551 64.2601C192.881 64.2601 192.321 64.4401 191.891 64.7901C191.461 65.1401 191.251 65.6201 191.251 66.2401V81.2601C191.251 81.8701 191.461 82.3601 191.891 82.7101C192.321 83.0601 192.871 83.2401 193.551 83.2401C194.231 83.2401 194.761 83.0701 195.161 82.7301C195.551 82.3901 195.751 81.9001 195.751 81.2701V77.9201V77.9101Z" fill="#F97316"/>
<path d="M212.6 58.9805V82.2805H221.94V88.5205H205.16V58.9805H212.6Z" fill="#F97316"/>
<path d="M223.449 58.9805H230.889V88.5205H223.449V58.9805Z" fill="#F97316"/>
<path d="M245.81 58.9805H252.57V88.5205H245.81L240.36 73.5705V88.5205H233.59V58.9805H240.36L245.81 74.0605V58.9805Z" fill="#F97316"/>
<path d="M275.17 78.0703V72.6503H284.4V82.3403C284.4 84.7103 283.54 86.4403 281.81 87.5303C280.09 88.6203 277.81 89.1703 274.99 89.1703C272.17 89.1703 269.84 88.6203 268.07 87.5303C266.3 86.4303 265.41 84.7003 265.41 82.3403V65.1503C265.41 62.7803 266.27 61.0503 268 59.9603C269.73 58.8703 272 58.3203 274.82 58.3203C277.64 58.3203 279.91 58.8703 281.64 59.9603C283.37 61.0603 284.23 62.7903 284.23 65.1503V68.5303H277.13V66.2303C277.13 65.6203 276.92 65.1303 276.49 64.7803C276.06 64.4303 275.51 64.2503 274.83 64.2503C274.15 64.2503 273.6 64.4303 273.17 64.7803C272.74 65.1303 272.53 65.6103 272.53 66.2303V81.2503C272.53 81.8603 272.77 82.3503 273.24 82.7003C273.71 83.0503 274.3 83.2303 275 83.2303C275.7 83.2303 276.29 83.0603 276.76 82.7003C277.23 82.3403 277.47 81.8703 277.47 81.2503V78.0603H275.17V78.0703Z" fill="#F97316"/>
<path d="M298.442 58.9805H305.582V82.3505C305.582 84.7205 304.722 86.4505 302.992 87.5405C301.272 88.6305 298.992 89.1805 296.172 89.1805C293.352 89.1805 291.082 88.6305 289.352 87.5405C287.632 86.4405 286.762 84.7105 286.762 82.3505V58.9805H293.902V81.2605C293.902 81.9005 294.112 82.3805 294.532 82.7205C294.952 83.0605 295.492 83.2305 296.172 83.2305C296.852 83.2305 297.392 83.0605 297.812 82.7205C298.232 82.3805 298.432 81.8905 298.432 81.2605V58.9805H298.442Z" fill="#F97316"/>
<path d="M308.289 58.9805H315.729V88.5205H308.289V58.9805Z" fill="#F97316"/>
<path d="M337.24 81.9505C337.24 86.3305 334.98 88.5205 330.47 88.5205H318.43V58.9805H330.47C334.98 58.9805 337.24 61.1705 337.24 65.5505V81.9505ZM330.31 67.3305C330.31 66.5605 330.16 65.9905 329.85 65.6205C329.55 65.2505 329.01 65.0605 328.24 65.0605H325.53V82.4805H328.24C329.01 82.4805 329.54 82.2905 329.85 81.9205C330.15 81.5505 330.31 80.9805 330.31 80.2105V67.3305Z" fill="#F97316"/>
<path d="M356.89 88.5205H339.77V58.9805H356.55V65.0605H346.88V70.6505H356.22V76.4005H346.88V82.4505H356.89V88.5305V88.5205Z" fill="#F97316"/>
<path d="M41.9382 91.3409C42.0282 91.3409 42.1282 91.3409 42.2182 91.3109H43.2182C60.0382 91.3109 71.2482 86.7909 77.6882 82.9809C78.0282 82.7809 78.2782 82.4509 78.3782 82.0709C78.4782 81.6809 78.4182 81.2809 78.2182 80.9409C77.9482 80.4909 77.4582 80.2109 76.9382 80.2109C76.6682 80.2109 76.4082 80.2809 76.1782 80.4209C70.0482 84.0309 59.3482 88.3409 43.1482 88.3409H42.7382C41.6982 88.3409 41.0182 88.3409 40.5982 89.2009C40.3482 89.7109 40.4182 90.3309 40.7682 90.7809C41.0582 91.1409 41.4782 91.3409 41.9382 91.3409ZM42.0382 91.1209C42.0382 91.1209 42.1282 91.1209 42.1782 91.1109C42.1782 91.1109 42.1882 91.1109 42.1982 91.1109H42.1782C42.1782 91.1109 42.0882 91.1109 42.0382 91.1209ZM42.7682 91.1109C42.6182 91.1109 42.4982 91.1109 42.3982 91.1109C42.4982 91.1109 42.6282 91.1109 42.7682 91.1109C43.4082 91.1109 44.0182 91.1009 44.6382 91.0909C44.1682 91.0909 43.7082 91.1109 43.2182 91.1109C43.0682 91.1109 42.9182 91.1109 42.7682 91.1109ZM77.5882 82.8109C77.1882 83.0509 76.7582 83.2909 76.3182 83.5309C76.7582 83.2909 77.1782 83.0509 77.5882 82.8109C77.6982 82.7409 77.7982 82.6609 77.8782 82.5709C77.7982 82.6609 77.6982 82.7509 77.5882 82.8109ZM46.0982 91.0609C46.6382 91.0409 47.1582 91.0109 47.6882 90.9909C47.1582 91.0209 46.6382 91.0509 46.0982 91.0609ZM49.0682 90.9209C49.5882 90.8909 50.0882 90.8409 50.5882 90.8009C50.0782 90.8409 49.5882 90.8909 49.0682 90.9209ZM51.9082 90.6809C52.4082 90.6309 52.8782 90.5709 53.3682 90.5109C52.8882 90.5709 52.4082 90.6309 51.9082 90.6809ZM54.6182 90.3609C55.0982 90.3009 55.5482 90.2209 56.0182 90.1509C55.5582 90.2209 55.0982 90.3009 54.6182 90.3609ZM57.1982 89.9609C57.6582 89.8809 58.0982 89.7909 58.5382 89.7109C58.0982 89.7909 57.6582 89.8809 57.1982 89.9609ZM59.6582 89.5009C60.0982 89.4109 60.5182 89.3109 60.9382 89.2109C60.5182 89.3109 60.0982 89.4109 59.6582 89.5009ZM61.9882 88.9809C62.4082 88.8809 62.8082 88.7709 63.2082 88.6609C62.7982 88.7709 62.3982 88.8809 61.9882 88.9809ZM64.1982 88.4009C64.5982 88.2909 64.9782 88.1709 65.3682 88.0509C64.9782 88.1709 64.5982 88.2909 64.1982 88.4009ZM66.2882 87.7809C66.6682 87.6609 67.0282 87.5309 67.3982 87.4109C67.0282 87.5309 66.6682 87.6609 66.2882 87.7809ZM68.2582 87.1209C68.6182 86.9909 68.9682 86.8609 69.3182 86.7309C68.9682 86.8609 68.6282 87.0009 68.2582 87.1209ZM70.1082 86.4309C70.4582 86.2909 70.7882 86.1509 71.1282 86.0109C70.7882 86.1509 70.4582 86.2909 70.1082 86.4309ZM71.8382 85.7209C72.1682 85.5809 72.4882 85.4309 72.8082 85.2809C72.4882 85.4309 72.1782 85.5709 71.8382 85.7209ZM73.4482 84.9909C73.7682 84.8409 74.0682 84.6909 74.3782 84.5309C74.0682 84.6809 73.7682 84.8309 73.4482 84.9909ZM74.9382 84.2609C75.2782 84.0909 75.5882 83.9209 75.9082 83.7509C75.5882 83.9209 75.2782 84.0909 74.9382 84.2609ZM78.2082 81.5409C78.1882 81.3709 78.1282 81.2109 78.0382 81.0609C78.1282 81.2109 78.1782 81.3809 78.2082 81.5409ZM77.8482 80.8109C77.8482 80.8109 77.8082 80.7709 77.7782 80.7509C77.7982 80.7709 77.8282 80.7909 77.8482 80.8109ZM77.5282 80.5709C77.5282 80.5709 77.5782 80.6009 77.6082 80.6209C77.5782 80.6009 77.5582 80.5909 77.5282 80.5709ZM76.9682 80.4209C76.9682 80.4209 76.9082 80.4209 76.8782 80.4209C76.8982 80.4209 76.9182 80.4209 76.9282 80.4209C76.9382 80.4209 76.9482 80.4209 76.9582 80.4209H76.9682ZM76.5782 80.4709C76.5782 80.4709 76.6382 80.4609 76.6682 80.4509C76.6382 80.4509 76.6082 80.4609 76.5782 80.4709ZM43.1482 88.5409C50.0682 88.5409 55.9782 87.7509 60.9682 86.5709C55.9782 87.7509 50.0682 88.5409 43.1482 88.5409C43.0282 88.5409 42.8982 88.5409 42.7782 88.5409C42.8982 88.5409 43.0282 88.5409 43.1482 88.5409ZM66.4282 85.0209C65.0282 85.4909 63.5282 85.9309 61.9282 86.3409C63.5282 85.9409 65.0182 85.4909 66.4282 85.0209ZM42.0782 88.5509C41.8682 88.5609 41.6882 88.5809 41.5282 88.6309C41.6882 88.5809 41.8682 88.5609 42.0782 88.5509ZM40.9382 90.6309C40.9782 90.6809 41.0282 90.7309 41.0782 90.7709C41.0282 90.7309 40.9782 90.6809 40.9382 90.6309C40.8582 90.5309 40.7982 90.4309 40.7582 90.3209C40.7982 90.4309 40.8682 90.5409 40.9382 90.6309Z" fill="#F97316"/>
<path d="M97.7 28.1091L79.65 22.8691C79.57 22.8491 79.48 22.8291 79.39 22.8291C79.34 22.8291 79.29 22.8291 79.23 22.8391C79.04 22.6791 78.82 22.5991 78.59 22.5991L48.74 22.7691C48.53 17.8691 43.1 15.1491 41.22 14.7591L41.03 14.7191C40.34 14.5691 39.39 14.3691 38.14 14.3691C35.16 14.3691 31.86 15.5691 28.35 17.9491C28.23 18.0291 25.39 19.9291 22.16 22.9191L1.06 23.0391C0.48 23.0391 0 23.5191 0 24.0991V33.7791C0 34.0591 0.12 34.3291 0.32 34.5291C0.52 34.7291 0.79 34.8391 1.07 34.8391L13.07 34.8191L13.04 34.8691L12.66 35.5391C8.21 43.3691 1.5 55.1791 0.51 69.0891C-0.24 79.5791 1.42 83.0591 2.63 85.5891C3.2 86.7991 3.62 87.6691 3.57 89.0691C3.38 94.2091 4.29 97.5491 6.35 99.2691C7.35 100.099 8.58 100.519 10.03 100.519C10.14 100.519 10.25 100.519 10.36 100.519C10.94 100.509 11.54 100.429 12.14 100.299C13.48 99.999 15.04 99.8591 16.9 99.8591C19.9 99.8791 23.29 100.249 26.89 100.649C31.16 101.119 35.99 101.659 40.95 101.659L41.01 101.449V101.659H41.1C42.02 101.659 42.93 101.639 43.8 101.609C55.84 101.099 68.62 99.1791 75.6 96.8391C81.56 94.8291 92.22 87.2991 89.96 73.1191C89.91 72.0791 89.1 62.5891 75.42 56.3191C72.34 54.9091 68.99 54.1891 65.45 54.1891C65.27 54.1891 65.09 54.1891 64.92 54.1891C54.68 54.3391 46.13 60.3591 45.77 60.6191C45.54 60.7991 40.2 64.9891 37.39 69.2791C36.08 69.4091 32.17 69.8991 28.87 71.3691C29.43 69.9491 29.73 68.4591 29.79 66.8391C29.92 63.3991 28.93 59.9691 28.06 56.9491C27.94 56.5291 27.82 56.1091 27.7 55.6991C26.77 52.3991 26.03 49.2191 27.22 46.6791C28.23 44.5191 29.07 42.7491 29.7 41.4291C30.03 40.7391 30.26 40.2691 30.43 39.9391C31.46 40.5091 32.9 40.7491 35.2 40.7491C35.96 40.7491 36.83 40.7191 37.78 40.6691C38.87 40.6091 39.89 40.4991 40.81 40.3491C44.2 39.8091 46.16 38.7291 46.82 37.0391C47.09 36.3391 47.11 35.5891 46.89 34.7991L78.49 34.7591H78.52C78.6 34.7591 78.67 34.7491 78.74 34.7291L97.68 30.1791C98.15 30.0691 98.48 29.6491 98.49 29.1691C98.5 28.6891 98.19 28.2591 97.72 28.1291L97.7 28.1091ZM77.85 27.1491C78.32 27.8491 78.33 29.7191 78.1 30.0091C77.51 30.5991 77.13 31.6291 77.12 32.6191L45.69 32.6591C45.6 32.5491 45.54 32.4891 45.52 32.4691C45.14 32.1191 44.81 31.7691 44.52 31.4091C43.62 30.3191 43.27 29.3091 43.46 28.4291C43.86 26.6091 46.46 25.3691 47.25 25.0391C47.37 24.9891 47.48 24.9391 47.58 24.9091L77.34 24.7391C77.29 25.4691 77.36 26.4091 77.85 27.1491ZM40.83 16.6391C42.2 16.9191 46.78 19.1091 46.84 22.9991C46.84 23.0491 46.84 23.0991 46.84 23.1491C46.48 23.2891 45.94 23.5291 45.33 23.8591C44.9 24.0991 44.44 24.3791 43.99 24.7191C43.2 25.3091 42.45 26.0591 41.98 26.9791C41.81 27.3091 41.68 27.6591 41.59 28.0291C41.24 29.6091 41.82 31.2391 43.26 32.8891C43.38 33.0191 43.5 33.1591 43.63 33.2891C43.77 33.4391 43.92 33.5891 44.07 33.7291C44.11 33.7691 44.14 33.7991 44.18 33.8391C44.18 33.8391 44.46 34.1491 44.71 34.5791C45 35.0791 45.26 35.7391 45.02 36.3391C44.83 36.8091 44.23 37.5091 42.4 38.0391C44.22 37.4991 44.83 36.8091 45.02 36.3391C45.26 35.7391 45 35.0791 44.71 34.5791C44.46 34.1491 44.18 33.8391 44.18 33.8391C44.14 33.7991 44.11 33.7691 44.07 33.7291C43.91 33.5791 43.77 33.4291 43.63 33.2891C43.5 33.1591 43.38 33.0191 43.26 32.8891C41.82 31.2391 41.25 29.6091 41.59 28.0291C41.67 27.6591 41.81 27.3091 41.98 26.9791C42.45 26.0591 43.19 25.3091 43.99 24.7191C44.44 24.3791 44.9 24.0991 45.33 23.8591C45.94 23.5291 46.48 23.2891 46.84 23.1491C46.84 23.0991 46.84 23.0491 46.84 22.9991C46.78 19.1091 42.21 16.9291 40.83 16.6391L40.63 16.5991C40.51 16.5691 40.37 16.5391 40.22 16.5191C40.37 16.5491 40.5 16.5791 40.63 16.5991L40.83 16.6391ZM37.63 38.5391C36.72 38.5891 35.9 38.6191 35.19 38.6191C31.75 38.6191 31.21 38.0091 30.68 37.4091C29.92 36.5491 29.09 35.8191 26.73 35.4891C26.34 35.4391 25.94 35.3991 25.5 35.3691H25.44C24.89 35.3691 24.4 35.8091 24.36 36.3591C24.32 36.9391 24.76 37.4491 25.35 37.4891C27.59 37.6391 28.31 38.0491 28.76 38.4791C28.42 39.1491 27.53 40.9491 25.28 45.7691C23.63 49.2991 24.78 53.2991 26 57.5291C26.24 58.3491 26.47 59.1691 26.69 59.9891C27.71 63.8391 28.37 67.9191 26.34 71.7591C25.6 73.1491 25.02 74.2591 24.56 75.1691C22.39 79.4291 22.53 79.7791 23.33 80.2991C23.46 80.3791 23.66 80.4791 23.93 80.4791C24.33 80.4791 24.7 80.2591 25.04 79.8291C25.28 79.5291 25.33 79.1291 25.2 78.7791C25.45 78.1991 25.98 77.0691 27.1 74.8891V74.8691C27.15 74.8491 27.2 74.8191 27.25 74.7791C30.65 71.8691 37.98 71.3491 38.06 71.3391C38.4 71.3191 38.72 71.1291 38.89 70.8291C41.33 66.8291 46.78 62.4891 47.01 62.3091C47.09 62.2591 55.18 56.5891 64.76 56.3391C64.97 56.3391 65.18 56.3391 65.39 56.3391C68.6 56.3391 71.62 56.9791 74.37 58.2391C87.27 64.1491 87.67 72.8791 87.68 73.2491C87.68 73.2991 87.68 73.3391 87.69 73.3891C89.76 86.1991 80.14 92.9991 74.76 94.8091C67.95 97.0991 55.41 98.9791 43.55 99.4691C42.88 99.4991 42.17 99.5091 41.44 99.5191H40.96C36.09 99.5191 31.32 98.9891 27.11 98.5291C23.41 98.1191 19.91 97.7291 16.8 97.7291H16.73C14.72 97.7291 13.02 97.8891 11.52 98.2191C10.99 98.3391 10.49 98.3891 10.03 98.3891H9.94C9.03 98.3691 8.3 98.1291 7.71 97.6291C6.2 96.3691 5.52 93.5191 5.69 89.1391C5.76 87.2191 5.2 86.0391 4.55 84.6691C3.44 82.3391 1.93 79.1591 2.63 69.2291C3.58 55.7991 10.16 44.2391 14.51 36.5891C14.88 35.9291 15.24 35.3091 15.57 34.7091C15.72 34.4391 15.86 34.1891 16.01 33.9291L16.05 33.8591L16.17 33.6391L16.34 33.3291C16.38 33.2591 16.42 33.1891 16.46 33.1191L16.52 33.0091C18 30.4091 20.21 27.7091 23.09 24.9791C23.4 24.6891 23.71 24.3991 24.01 24.1291C24.34 23.8291 24.66 23.5491 24.97 23.2791C27.4 21.1791 29.32 19.8591 29.54 19.7191C29.62 19.6691 29.7 19.6191 29.77 19.5691L29.93 19.4691C32.93 17.5091 35.71 16.5191 38.19 16.5191C39.23 16.5191 40.02 16.6891 40.59 16.8091L40.79 16.8491C42.06 17.1091 46.57 19.2191 46.63 22.9991C46.28 23.1391 45.79 23.3591 45.23 23.6691C44.74 23.9391 44.28 24.2291 43.86 24.5391C42.92 25.2491 42.22 26.0291 41.79 26.8691C41.6 27.2491 41.46 27.6091 41.39 27.9691C41.03 29.5991 41.61 31.2991 43.11 33.0091C43.23 33.1491 43.35 33.2791 43.49 33.4191C43.63 33.5691 43.78 33.7191 43.94 33.8691L43.98 33.9091C43.98 33.9091 44.02 33.9491 44.04 33.9691C44.04 33.9691 44.3 34.2591 44.53 34.6591C44.89 35.2791 44.99 35.8091 44.83 36.2291C44.66 36.6591 44 37.4691 41.5 38.0191C40.43 38.2591 39.13 38.4191 37.64 38.5091L37.63 38.5391ZM26.2 57.4691C26.44 58.2891 26.67 59.1091 26.89 59.9291C27.95 63.9191 28.58 67.9791 26.52 71.8491C25.8 73.2091 25.22 74.3291 24.74 75.2591C22.57 79.5391 22.81 79.7091 23.43 80.1091C23.53 80.1691 23.7 80.2591 23.91 80.2591C23.98 80.2591 24.05 80.2591 24.12 80.2291C24.05 80.2491 23.98 80.2591 23.91 80.2591C23.69 80.2591 23.52 80.1791 23.43 80.1091C22.81 79.6991 22.56 79.5291 24.74 75.2591C25.21 74.3291 25.79 73.2091 26.52 71.8491C28.57 67.9691 27.95 63.9191 26.89 59.9291C26.67 59.1091 26.44 58.2791 26.2 57.4691C24.99 53.2791 23.85 49.3191 25.47 45.8591C27.93 40.5891 28.76 38.9491 29.02 38.4391C28.51 37.9091 27.79 37.4391 25.36 37.2791C24.89 37.2491 24.54 36.8391 24.57 36.3791C24.57 36.2591 24.61 36.1591 24.66 36.0591C24.61 36.1591 24.58 36.2591 24.57 36.3791C24.54 36.8491 24.89 37.2491 25.36 37.2791C27.79 37.4391 28.51 37.9091 29.02 38.4391C28.75 38.9491 27.93 40.5891 25.47 45.8591C23.85 49.3191 24.99 53.2791 26.2 57.4691ZM24.73 35.9691C24.77 35.9091 24.81 35.8491 24.86 35.7991C24.81 35.8491 24.77 35.9091 24.73 35.9691ZM24.97 35.7391C25.02 35.6991 25.08 35.6691 25.14 35.6391C25.08 35.6591 25.03 35.6991 24.97 35.7391ZM25.27 35.6191C25.33 35.6091 25.38 35.5891 25.43 35.5891H25.47C25.4 35.5891 25.33 35.6091 25.26 35.6191H25.27ZM38.3 16.3191C38.48 16.3191 38.66 16.3191 38.83 16.3391C38.66 16.3291 38.48 16.3191 38.3 16.3191ZM38.97 16.3491C39.17 16.3691 39.37 16.3891 39.55 16.4091C39.37 16.3791 39.18 16.3591 38.97 16.3491ZM39.66 16.4291C39.81 16.4491 39.95 16.4791 40.08 16.4991C39.95 16.4791 39.81 16.4491 39.66 16.4291ZM29.81 19.2891C30.23 19.0191 30.63 18.7691 31.03 18.5491C30.64 18.7791 30.23 19.0191 29.81 19.2891ZM31.39 18.3491C31.67 18.1991 31.94 18.0491 32.21 17.9191C31.94 18.0491 31.67 18.1991 31.39 18.3491ZM32.57 17.7391C32.86 17.5991 33.14 17.4791 33.41 17.3691C33.14 17.4791 32.86 17.6091 32.57 17.7391ZM33.63 17.2691C33.97 17.1291 34.3 17.0191 34.61 16.9191C34.29 17.0191 33.97 17.1391 33.63 17.2691ZM34.85 16.8491C35.09 16.7791 35.32 16.7091 35.54 16.6591C35.32 16.7191 35.09 16.7791 34.85 16.8491ZM35.82 16.5891C36.03 16.5391 36.23 16.4991 36.43 16.4691C36.23 16.4991 36.03 16.5391 35.82 16.5891ZM36.66 16.4291C36.92 16.3891 37.18 16.3591 37.42 16.3391C37.18 16.3591 36.93 16.3891 36.66 16.4291ZM37.5 16.3391C37.71 16.3291 37.92 16.3191 38.12 16.3191C37.92 16.3191 37.72 16.3191 37.5 16.3391ZM14.65 32.4191C14.56 32.5791 14.47 32.7491 14.38 32.9091C14.47 32.7491 14.57 32.5791 14.65 32.4191C16.19 29.6091 18.33 27.0191 20.48 24.8391C18.34 27.0191 16.19 29.6091 14.65 32.4191ZM1.91 24.9391L20.17 24.8391L1.91 24.9391ZM19.97 25.0491C17.61 27.4991 15.76 29.9391 14.46 32.3091L14.3 32.5991L14.25 32.6891L2.12 32.7091V25.1491L19.97 25.0491ZM10.74 98.5691C10.65 98.5791 10.57 98.5691 10.48 98.5891C10.57 98.5891 10.65 98.5891 10.74 98.5691ZM16.73 97.9491H16.8C16.52 97.9491 16.26 97.9491 15.98 97.9591C16.23 97.9591 16.47 97.9491 16.73 97.9491ZM15.39 97.9791C15.11 97.9891 14.84 98.0091 14.57 98.0291C14.84 98.0091 15.11 97.9891 15.39 97.9791ZM14.06 98.0591C13.78 98.0891 13.5 98.1191 13.23 98.1591C13.5 98.1291 13.78 98.0891 14.06 98.0591ZM12.78 98.2091C12.38 98.2691 11.99 98.3391 11.61 98.4191C11.99 98.3391 12.38 98.2691 12.78 98.2091ZM40.17 99.7291C39.89 99.7291 39.61 99.7291 39.33 99.7191C39.61 99.7191 39.89 99.7191 40.17 99.7291ZM38.32 99.6891C38.05 99.6891 37.77 99.6691 37.5 99.6591C37.77 99.6691 38.05 99.6791 38.32 99.6891ZM36.48 99.6091C36.22 99.5991 35.95 99.5791 35.69 99.5691C35.95 99.5891 36.22 99.5991 36.48 99.6091ZM34.64 99.4891C34.39 99.4691 34.15 99.4591 33.9 99.4391C34.14 99.4591 34.39 99.4791 34.64 99.4891ZM32.79 99.3391C32.57 99.3191 32.36 99.2991 32.14 99.2791C32.35 99.2991 32.57 99.3191 32.79 99.3391ZM30.95 99.1691C30.77 99.1491 30.59 99.1391 30.42 99.1191C30.59 99.1391 30.77 99.1491 30.95 99.1691ZM28.98 98.9691C28.9 98.9691 28.82 98.9491 28.74 98.9391C28.82 98.9391 28.9 98.9591 28.98 98.9691ZM41.58 99.7491C41.53 99.7491 41.48 99.7491 41.43 99.7491C41.48 99.7491 41.53 99.7491 41.58 99.7491ZM87.89 73.3691C87.89 73.3691 87.88 73.2891 87.88 73.2491C87.87 72.8791 87.46 64.0091 74.45 58.0491C74.43 58.0491 74.42 58.0391 74.4 58.0291C74.42 58.0291 74.43 58.0391 74.45 58.0491C87.46 64.0091 87.87 72.8791 87.88 73.2491C87.88 73.2891 87.88 73.3291 87.89 73.3691C89.98 86.3091 80.25 93.1991 74.82 95.0291C80.26 93.1991 89.99 86.3191 87.89 73.3691ZM74.02 55.9691C74.43 56.1291 74.83 56.2991 75.24 56.4791C74.83 56.2991 74.43 56.1191 74.02 55.9691ZM66.19 56.1591C66.02 56.1591 65.84 56.1591 65.67 56.1491C65.84 56.1491 66.02 56.1491 66.19 56.1591ZM66.38 54.4291C66.61 54.4291 66.83 54.4491 67.06 54.4691C66.83 54.4591 66.61 54.4391 66.38 54.4291ZM67.63 54.5091C67.86 54.5291 68.09 54.5591 68.32 54.5791C68.09 54.5491 67.86 54.5291 67.63 54.5091ZM68.89 54.6491C69.12 54.6791 69.36 54.7191 69.59 54.7591C69.36 54.7191 69.12 54.6791 68.89 54.6491ZM70.16 54.8591C70.4 54.9091 70.64 54.9591 70.88 55.0191C70.64 54.9591 70.4 54.9091 70.16 54.8591ZM71.44 55.1491C71.69 55.2091 71.94 55.2891 72.19 55.3591C71.94 55.2891 71.69 55.2091 71.44 55.1491ZM72.72 55.5191C73 55.6091 73.27 55.7091 73.55 55.8091C73.27 55.7091 73 55.6091 72.72 55.5191ZM73.25 57.5591C73.11 57.5091 72.98 57.4591 72.84 57.4191C72.98 57.4691 73.11 57.5091 73.25 57.5591ZM72.07 57.1491C71.91 57.0991 71.75 57.0591 71.59 57.0091C71.75 57.0591 71.91 57.0991 72.07 57.1491ZM70.89 56.8091C70.72 56.7691 70.55 56.7291 70.38 56.6891C70.55 56.7291 70.72 56.7591 70.89 56.8091ZM69.7 56.5491C69.53 56.5191 69.36 56.4891 69.18 56.4591C69.35 56.4891 69.52 56.5191 69.7 56.5491ZM68.52 56.3591C68.35 56.3391 68.17 56.3191 68 56.2991C68.17 56.3191 68.35 56.3391 68.52 56.3591ZM67.34 56.2291C67.17 56.2191 66.99 56.1991 66.82 56.1891C66.99 56.1991 67.17 56.2091 67.34 56.2291ZM38.01 71.1491C37.96 71.1491 34.44 71.4091 31.13 72.5191C34.44 71.3991 37.96 71.1491 38.01 71.1491C38.08 71.1491 38.15 71.1291 38.21 71.1091C38.15 71.1291 38.08 71.1391 38.01 71.1491ZM30.63 37.7191L30.6 37.6891L30.63 37.7191ZM30.77 37.8591C30.77 37.8591 30.74 37.8291 30.73 37.8191C30.74 37.8291 30.76 37.8491 30.77 37.8591ZM34.99 38.8391C34.9 38.8391 34.82 38.8391 34.74 38.8391C34.82 38.8391 34.9 38.8391 34.99 38.8391ZM34.3 38.8291C34.23 38.8291 34.15 38.8291 34.08 38.8291C34.15 38.8291 34.22 38.8291 34.3 38.8291ZM33.66 38.7991C33.66 38.7991 33.56 38.7991 33.51 38.7891C33.56 38.7891 33.61 38.7891 33.66 38.7991ZM32.57 38.6691C32.57 38.6691 32.49 38.6491 32.45 38.6491C32.49 38.6491 32.53 38.6691 32.57 38.6691ZM32.19 38.5891C32.19 38.5891 32.11 38.5691 32.07 38.5591C32.11 38.5691 32.15 38.5791 32.19 38.5891ZM31.86 38.4991C31.86 38.4991 31.79 38.4791 31.76 38.4691C31.79 38.4791 31.83 38.4891 31.86 38.4991ZM31.56 38.3891C31.56 38.3891 31.51 38.3691 31.49 38.3591C31.51 38.3591 31.53 38.3791 31.56 38.3891ZM31.08 38.1291C31.08 38.1291 31.05 38.1091 31.03 38.0991C31.05 38.1091 31.06 38.1191 31.08 38.1291ZM30.91 37.9991C30.91 37.9991 30.88 37.9691 30.86 37.9591C30.88 37.9691 30.89 37.9891 30.91 37.9991ZM36.69 38.8091C36.62 38.8091 36.55 38.8091 36.49 38.8091C36.56 38.8091 36.62 38.8091 36.69 38.8091ZM39.1 38.6391C38.91 38.6591 38.71 38.6791 38.5 38.6991C38.71 38.6791 38.91 38.6591 39.1 38.6391ZM78.23 30.1591C78.52 29.7791 78.5 27.8191 77.98 27.0491C77.48 26.2991 77.45 25.2991 77.53 24.5391L48 24.7091L77.53 24.5391C77.45 25.2991 77.48 26.2891 77.98 27.0491C78.49 27.8191 78.52 29.7791 78.23 30.1591C77.63 30.7691 77.25 31.8691 77.3 32.8491C77.25 31.8591 77.63 30.7591 78.23 30.1591ZM79.23 32.4191C79.28 32.0691 79.41 31.6891 79.59 31.5091C80.65 30.4491 80.49 27.3591 79.59 25.9891C79.48 25.8291 79.43 25.5391 79.43 25.1591C79.43 25.1191 79.43 25.0791 79.43 25.0391L87.69 27.4391V30.3791L79.24 32.4091L79.23 32.4191ZM87.89 30.5591V27.2891L79.24 24.7791L87.89 27.2891V30.5591ZM79.54 23.0991C79.47 23.0791 79.41 23.0691 79.34 23.0691C79.4 23.0691 79.47 23.0691 79.53 23.0991H79.54ZM38.27 14.5991C38.18 14.5991 38.08 14.5991 37.98 14.5991C38.03 14.5991 38.08 14.5991 38.13 14.5991C38.18 14.5991 38.22 14.5991 38.27 14.5991ZM40.5 14.8391C40.5 14.8391 40.4 14.8191 40.35 14.8091C40.4 14.8091 40.45 14.8291 40.5 14.8391ZM39.86 14.7291C39.86 14.7291 39.77 14.7191 39.73 14.7091C39.78 14.7091 39.82 14.7191 39.86 14.7291ZM39.05 14.6391C39 14.6391 38.94 14.6391 38.88 14.6291C38.94 14.6291 38.99 14.6291 39.05 14.6391ZM29.78 17.2991C30.12 17.0891 30.46 16.8991 30.78 16.7191C30.45 16.8991 30.12 17.0891 29.78 17.2991ZM30.89 16.6691C31.19 16.5091 31.48 16.3591 31.77 16.2191C31.48 16.3591 31.19 16.5091 30.89 16.6691ZM31.98 16.1191C32.29 15.9791 32.59 15.8391 32.88 15.7291C32.59 15.8491 32.29 15.9791 31.98 16.1191ZM33.03 15.6691C33.29 15.5691 33.54 15.4691 33.79 15.3891C33.54 15.4791 33.29 15.5691 33.03 15.6691ZM33.95 15.3291C34.22 15.2391 34.49 15.1591 34.75 15.0891C34.49 15.1591 34.23 15.2391 33.95 15.3291ZM34.91 15.0391C35.14 14.9791 35.36 14.9291 35.58 14.8791C35.36 14.9291 35.14 14.9791 34.91 15.0391ZM35.7 14.8491C35.94 14.7991 36.17 14.7591 36.4 14.7291C36.17 14.7591 35.94 14.7991 35.7 14.8491ZM36.56 14.7091C36.77 14.6791 36.97 14.6591 37.17 14.6391C36.97 14.6591 36.77 14.6791 36.56 14.7091ZM37.23 14.6391C37.44 14.6191 37.64 14.6091 37.84 14.6091C37.64 14.6091 37.44 14.6191 37.23 14.6391ZM22.24 23.1391C25.45 20.1691 28.26 18.2791 28.47 18.1391C28.84 17.8891 29.19 17.6691 29.54 17.4491C29.19 17.6691 28.83 17.8891 28.47 18.1391C28.26 18.2791 25.45 20.1691 22.24 23.1391ZM3.78 89.0791C3.83 87.6291 3.41 86.7291 2.82 85.4991C1.62 82.9791 -0.02 79.5391 0.72 69.0991C1.7 55.2391 8.41 43.4491 12.84 35.6491C13.04 35.2891 13.23 34.9491 13.43 34.6091L1.07 34.6291C0.85 34.6291 0.63 34.5391 0.47 34.3791C0.31 34.2191 0.22 33.9991 0.22 33.7791V24.0991C0.22 23.7491 0.43 23.4491 0.73 23.3191C0.43 23.4491 0.21 23.7491 0.21 24.0991V33.7791C0.21 33.9991 0.31 34.2191 0.47 34.3791C0.63 34.5391 0.84 34.6291 1.07 34.6291L13.43 34.6091C13.24 34.9491 13.05 35.2891 12.84 35.6491C8.41 43.4491 1.7 55.2491 0.72 69.0991C-0.02 79.5391 1.62 82.9791 2.82 85.4991C3.41 86.7291 3.83 87.6191 3.78 89.0791C3.59 94.1491 4.48 97.4291 6.49 99.1091C6.74 99.3191 7.01 99.4991 7.29 99.6491C7.01 99.4991 6.74 99.3191 6.49 99.1091C4.48 97.4291 3.59 94.1491 3.78 89.0791ZM8.17 100.029C7.96 99.9591 7.77 99.8691 7.57 99.7791C7.76 99.8691 7.96 99.9591 8.17 100.029ZM10.35 100.309C10.24 100.309 10.14 100.309 10.03 100.309C9.88 100.309 9.73 100.289 9.58 100.279C9.83 100.299 10.08 100.319 10.34 100.309C10.56 100.309 10.78 100.279 11 100.259C10.78 100.279 10.55 100.299 10.34 100.309H10.35ZM8.55 100.129C8.74 100.179 8.94 100.229 9.14 100.249C8.94 100.219 8.74 100.169 8.55 100.129ZM12.09 100.099C11.94 100.129 11.8 100.149 11.66 100.169C11.8 100.149 11.94 100.129 12.09 100.099C12.12 100.099 12.15 100.099 12.18 100.079C12.15 100.079 12.12 100.079 12.09 100.099ZM16.22 99.6691C16.02 99.6691 15.82 99.6691 15.62 99.6791C15.81 99.6791 16.02 99.6791 16.22 99.6691ZM14.93 99.7191C14.75 99.7291 14.57 99.7391 14.39 99.7491C14.57 99.7291 14.75 99.7291 14.93 99.7191ZM13.64 99.8391C13.5 99.8591 13.35 99.8691 13.21 99.8891C13.35 99.8691 13.5 99.8591 13.64 99.8391ZM40.93 101.449C35.98 101.449 31.19 100.919 26.89 100.439C23.23 100.039 19.88 99.6691 16.92 99.6491C19.88 99.6691 23.23 100.029 26.89 100.439C31.19 100.919 35.98 101.449 40.93 101.449C40.95 101.449 40.97 101.449 40.98 101.449C40.96 101.449 40.94 101.449 40.93 101.449ZM43.77 101.389C42.87 101.429 41.97 101.449 41.08 101.449C41.05 101.449 41.02 101.449 40.99 101.449C40.99 101.449 41.05 101.449 41.08 101.449C41.97 101.449 42.87 101.429 43.77 101.389C55.8 100.879 68.55 98.9691 75.51 96.6291C68.55 98.9691 55.8 100.889 43.77 101.389ZM65.81 54.3991C65.51 54.3991 65.2 54.3991 64.9 54.3991C65.07 54.3991 65.25 54.3991 65.42 54.3991C65.55 54.3991 65.68 54.3991 65.81 54.3991ZM45.86 60.7791C46.19 60.5391 50.28 57.6791 56.09 55.8691C50.28 57.6791 46.19 60.5391 45.86 60.7791C45.63 60.9591 40.25 65.1791 37.48 69.4691C40.25 65.1791 45.63 60.9591 45.86 60.7791ZM31.7 70.5591C30.6 70.8791 29.48 71.2791 28.44 71.7791C29.48 71.2691 30.61 70.8691 31.7 70.5591ZM37.74 40.4391C36.77 40.4991 35.92 40.5191 35.17 40.5191C32.52 40.5191 31.2 40.1791 30.32 39.6191C31.2 40.1791 32.53 40.5191 35.17 40.5191C35.91 40.5191 36.76 40.4891 37.74 40.4391C38.63 40.3891 39.43 40.2991 40.19 40.1991C39.43 40.2991 38.63 40.3891 37.74 40.4391ZM78.66 34.5091C78.6 34.5291 78.53 34.5291 78.47 34.5291L46.58 34.5691L78.47 34.5291C78.53 34.5291 78.6 34.5291 78.66 34.5091L97.6 29.9591L78.66 34.5091Z" fill="#F97316"/>
<path d="M26.18 7.32023L26.51 7.96023L26.58 7.24023L27.09 1.92023C27.1 1.32023 26.93 0.830234 26.6 0.480234C26.29 0.160234 25.85 -0.00976562 25.37 -0.00976562C24.73 -0.00976562 24.14 0.290234 23.81 0.780234C23.49 1.27023 23.46 1.89023 23.73 2.55023L26.18 7.32023ZM23.93 2.47023L26.37 7.22023L23.93 2.47023ZM26.68 0.970234C26.65 0.910234 26.61 0.850234 26.57 0.790234C26.61 0.840234 26.64 0.900234 26.68 0.970234ZM26.88 1.89023C26.88 1.74023 26.88 1.60023 26.85 1.46023C26.87 1.59023 26.88 1.73023 26.88 1.89023ZM26.81 1.33023C26.79 1.25023 26.77 1.17023 26.74 1.09023C26.77 1.16023 26.79 1.25023 26.81 1.33023ZM26.48 0.680234C26.48 0.680234 26.39 0.590234 26.34 0.550234C26.39 0.590234 26.43 0.630234 26.48 0.680234ZM25.67 0.230234C25.57 0.210234 25.46 0.200234 25.36 0.200234C25.46 0.200234 25.57 0.210234 25.67 0.230234ZM26.24 0.470234C26.19 0.430234 26.13 0.400234 26.08 0.370234C26.14 0.400234 26.19 0.430234 26.24 0.470234ZM25.97 0.320234C25.91 0.290234 25.84 0.280234 25.77 0.260234C25.84 0.280234 25.9 0.300234 25.97 0.320234ZM25.01 0.240234C25.01 0.240234 24.94 0.260234 24.9 0.270234C24.94 0.260234 24.97 0.250234 25.01 0.240234ZM24.67 0.350234C24.67 0.350234 24.59 0.390234 24.55 0.410234C24.59 0.390234 24.63 0.370234 24.67 0.350234ZM24.36 0.520234C24.36 0.520234 24.28 0.580234 24.25 0.610234C24.29 0.580234 24.32 0.550234 24.36 0.520234ZM24.1 0.750234C24.1 0.750234 24.04 0.830234 24.01 0.870234C24.04 0.830234 24.07 0.790234 24.1 0.750234ZM23.9 1.05023C23.9 1.05023 23.86 1.14023 23.84 1.19023C23.86 1.14023 23.88 1.10023 23.9 1.05023ZM23.78 1.41023C23.78 1.46023 23.76 1.51023 23.75 1.56023C23.75 1.51023 23.77 1.46023 23.78 1.41023ZM23.78 1.99023C23.78 1.94023 23.78 1.89023 23.77 1.84023C23.77 1.89023 23.77 1.94023 23.78 1.99023Z" fill="#F97316"/>
<path d="M8.23817 5.08969L21.5382 14.1197L21.8082 13.7897L10.4282 2.44969C10.0682 2.10969 9.64817 1.92969 9.22817 1.92969C8.50817 1.92969 7.80817 2.45969 7.56817 3.19969C7.33817 3.90969 7.58817 4.61969 8.23817 5.08969ZM7.76817 4.14969C7.78817 4.21969 7.81817 4.27969 7.85817 4.34969C7.81817 4.27969 7.79817 4.21969 7.76817 4.14969ZM7.90817 4.42969C7.94817 4.48969 7.98817 4.54969 8.03817 4.60969C7.98817 4.54969 7.94817 4.48969 7.90817 4.42969ZM8.36817 4.90969C8.26817 4.83969 8.17817 4.75969 8.10817 4.67969C8.18817 4.75969 8.26817 4.83969 8.36817 4.90969L21.6582 13.9297L8.35817 4.91969L8.36817 4.90969ZM10.2782 2.58969C10.1882 2.50969 10.0982 2.43969 9.99817 2.37969C10.0882 2.43969 10.1882 2.50969 10.2782 2.58969ZM9.90817 2.31969C9.84817 2.28969 9.77817 2.24969 9.71817 2.22969C9.77817 2.24969 9.84817 2.28969 9.90817 2.31969ZM9.60817 2.18969C9.54817 2.16969 9.48817 2.15969 9.42817 2.14969C9.48817 2.14969 9.54817 2.16969 9.60817 2.18969ZM9.31817 2.13969C9.25817 2.13969 9.19817 2.13969 9.13817 2.13969C9.17817 2.13969 9.20817 2.13969 9.24817 2.13969C9.26817 2.13969 9.29817 2.13969 9.31817 2.13969ZM8.32817 2.46969C8.32817 2.46969 8.42817 2.38969 8.48817 2.35969C8.43817 2.38969 8.37817 2.42969 8.32817 2.46969ZM8.54817 2.31969C8.62817 2.27969 8.70817 2.23969 8.78817 2.20969C8.70817 2.23969 8.62817 2.27969 8.54817 2.31969ZM8.80817 2.19969C8.88817 2.16969 8.96817 2.15969 9.04817 2.13969C8.96817 2.14969 8.88817 2.16969 8.80817 2.19969ZM8.25817 2.52969C8.25817 2.52969 8.15817 2.61969 8.11817 2.66969C8.15817 2.61969 8.20817 2.56969 8.25817 2.52969ZM8.06817 2.71969C8.00817 2.78969 7.95817 2.85969 7.91817 2.93969C7.95817 2.85969 8.01817 2.78969 8.06817 2.71969ZM7.71817 3.52969C7.71817 3.59969 7.70817 3.67969 7.71817 3.74969C7.71817 3.66969 7.71817 3.59969 7.71817 3.52969ZM7.89817 2.97969C7.85817 3.04969 7.82817 3.11969 7.80817 3.18969C7.83817 3.11969 7.86817 3.04969 7.89817 2.97969ZM7.77817 3.26969C7.75817 3.32969 7.74817 3.38969 7.72817 3.45969C7.73817 3.39969 7.75817 3.33969 7.77817 3.26969ZM7.75817 4.07969C7.72817 3.98969 7.71817 3.89969 7.70817 3.80969C7.70817 3.89969 7.72817 3.98969 7.75817 4.07969Z" fill="#F97316"/>
<path d="M5.27018 18.6609L17.9102 19.0509L19.6802 19.1009L17.9702 18.6309L5.79018 15.2709C5.62018 15.2309 5.45018 15.2109 5.30018 15.2109C4.24018 15.2109 3.66018 16.0609 3.63018 16.8909C3.60018 17.7109 4.10018 18.5709 5.27018 18.6609ZM4.13018 17.8709C4.13018 17.8709 4.20018 17.9609 4.24018 18.0009C4.20018 17.9609 4.16018 17.9209 4.13018 17.8709ZM3.98018 17.6209C3.98018 17.6209 4.03018 17.7209 4.06018 17.7609C4.03018 17.7109 4.00018 17.6709 3.98018 17.6209ZM5.28018 18.4409C5.15018 18.4409 5.02018 18.4109 4.91018 18.3809C5.03018 18.4109 5.15018 18.4309 5.28018 18.4409L17.9102 18.8309L5.28018 18.4409ZM4.33018 18.0809C4.33018 18.0809 4.43018 18.1509 4.48018 18.1909C4.43018 18.1609 4.37018 18.1209 4.33018 18.0809ZM4.59018 18.2509C4.65018 18.2809 4.73018 18.3109 4.80018 18.3309C4.73018 18.3009 4.65018 18.2809 4.59018 18.2509ZM5.32018 15.4109C5.24018 15.4109 5.16018 15.4109 5.08018 15.4309C5.15018 15.4309 5.22018 15.4109 5.29018 15.4109H5.31018H5.32018ZM4.37018 15.7509C4.37018 15.7509 4.27018 15.8309 4.23018 15.8809C4.27018 15.8309 4.32018 15.7909 4.37018 15.7509ZM4.99018 15.4409C4.89018 15.4609 4.79018 15.4909 4.69018 15.5309C4.78018 15.4909 4.88018 15.4609 4.99018 15.4409ZM4.67018 15.5509C4.59018 15.5909 4.51018 15.6309 4.44018 15.6809C4.51018 15.6309 4.59018 15.5809 4.67018 15.5509ZM4.17018 15.9709C4.17018 15.9709 4.10018 16.0609 4.07018 16.1109C4.10018 16.0609 4.13018 16.0109 4.17018 15.9709ZM3.86018 16.7709C3.86018 16.8209 3.86018 16.8809 3.85018 16.9309C3.85018 16.8809 3.85018 16.8209 3.86018 16.7709ZM4.02018 16.2209C4.00018 16.2709 3.97018 16.3209 3.95018 16.3709C3.97018 16.3209 3.99018 16.2709 4.02018 16.2209ZM3.92018 16.4909C3.91018 16.5409 3.89018 16.6009 3.88018 16.6509C3.88018 16.6009 3.90018 16.5409 3.92018 16.4909ZM3.95018 17.5009C3.93018 17.4509 3.91018 17.4009 3.90018 17.3509C3.91018 17.4009 3.93018 17.4509 3.95018 17.5009ZM3.88018 17.2209C3.88018 17.1709 3.86018 17.1109 3.86018 17.0609C3.86018 17.1109 3.87018 17.1709 3.88018 17.2209Z" fill="#F97316"/>
</g>
<defs>
<clipPath id="clip0_525_11074">
<rect width="357" height="102" fill="white"/>
</clipPath>
</defs>
</svg>
